<?xml version="1.0" encoding="utf-8"?><svg xmlns="http://www.w3.org/2000/svg" xmlns:xlink="http://www.w3.org/1999/xlink" width="1356" height="482" preserveAspectRatio="xMidYMid" viewBox="0 0 1356 482" style="z-index:1;margin-right:-1.98864px;display:block;background-repeat-y:initial;background-repeat-x:initial;animation-play-state:paused" ><g transform="" style="animation-play-state:paused" ><linearGradient id="lg-0.1198185064400934" x1="0" x2="1" y1="0" y2="0" style="animation-play-state:paused" ><stop stop-color="#5e6fa3" offset="0" style="animation-play-state:paused" ></stop>

  
<stop stop-color="#689cc5" offset="1" style="animation-play-state:paused" ></stop></linearGradient>
<path d="M 0 0 L 0 402.115 Q 135.6 333.275 271.2 316.654 T 542.4 363.119 T 813.6 311.462 T 1084.8 306.746 T 1356 336 L 1356 0 Z" fill="url(#lg-0.1198185064400934)" opacity="0.4" style="opacity:0.4;animation-play-state:paused" ></path>
<path d="M 0 0 L 0 326.733 Q 135.6 385.596 271.2 350.784 T 542.4 346.94 T 813.6 291.699 T 1084.8 269.926 T 1356 278.473 L 1356 0 Z" fill="url(#lg-0.1198185064400934)" opacity="0.4" style="opacity:0.4;animation-play-state:paused" ></path>
<path d="M 0 0 L 0 350.304 Q 135.6 377.065 271.2 340.913 T 542.4 330.601 T 813.6 358.264 T 1084.8 255.725 T 1356 305.648 L 1356 0 Z" fill="url(#lg-0.1198185064400934)" opacity="0.4" style="opacity:0.4;animation-play-state:paused" ></path>
<path d="M 0 0 L 0 277.135 Q 135.6 404.721 271.2 365.228 T 542.4 366.349 T 813.6 316.027 T 1084.8 336.508 T 1356 349.768 L 1356 0 Z" fill="url(#lg-0.1198185064400934)" opacity="0.4" style="opacity:0.4;animation-play-state:paused" ></path>
<path d="M 0 0 L 0 297.547 Q 135.6 324.975 271.2 286.16 T 542.4 319.342 T 813.6 306.874 T 1084.8 246.605 T 1356 337.916 L 1356 0 Z" fill="url(#lg-0.1198185064400934)" opacity="0.4" style="opacity:0.4;animation-play-state:paused" ></path></g></svg>